<?xml version="1.0" standalone="no"?>
<!DOCTYPE svg PUBLIC "-//W3C//DTD SVG 20010904//EN"
 "http://www.w3.org/TR/2001/REC-SVG-20010904/DTD/svg10.dtd">
<svg version="1.0" xmlns="http://www.w3.org/2000/svg"
 width="500.000000pt" height="500.000000pt" viewBox="0 0 500.000000 500.000000"
 preserveAspectRatio="xMidYMid meet">

<g transform="translate(0.000000,500.000000) scale(0.100000,-0.100000)"
fill="#000000" stroke="none">
<path d="M2415 4443 c-44 -7 -175 -62 -212 -90 -18 -13 -33 -20 -33 -15 0 12
49 56 90 81 43 26 39 26 -26 2 -75 -29 -172 -89 -226 -139 -72 -67 -58 -31 16
43 49 49 58 62 38 54 -90 -34 -187 -115 -246 -204 -26 -40 -35 -42 -15 -2 12
22 12 22 -10 2 -12 -10 -38 -51 -57 -90 -27 -54 -34 -62 -28 -35 3 19 13 49
22 65 l15 30 -22 -19 c-12 -11 -38 -53 -59 -95 -32 -64 -37 -84 -37 -145 0
-39 3 -87 7 -106 l8 -35 -15 30 c-7 17 -17 50 -21 75 -7 40 -8 42 -15 20 -13
-46 -9 -119 12 -213 l20 -94 -31 -46 c-45 -68 -62 -122 -62 -209 0 -97 15
-169 58 -275 33 -83 37 -133 10 -133 -6 0 -164 51 -350 114 -242 81 -343 111
-351 103 -8 -8 91 -45 347 -131 197 -66 358 -124 358 -129 0 -5 -11 -7 -25 -5
-37 7 -40 -8 -5 -20 39 -14 56 -50 42 -90 -9 -27 -8 -29 9 -25 33 9 22 -27
-20 -66 -45 -42 -118 -81 -149 -81 -11 0 -24 -4 -27 -10 -11 -17 -37 -11 -60
14 -13 14 -42 30 -66 36 -143 39 -937 313 -1001 346 -23 12 -28 21 -28 52 0
93 60 237 103 247 13 3 100 -19 208 -53 l186 -58 21 21 c14 14 33 22 51 21 24
-1 32 -6 36 -28 6 -25 7 -26 23 -10 17 16 17 17 0 22 -16 5 -17 7 -3 34 22 41
19 43 -15 11 -34 -33 -41 -30 -57 28 l-11 42 -1 -48 c-1 -52 -19 -69 -48 -46
-12 10 -15 10 -9 2 4 -7 4 -13 1 -13 -4 0 -88 25 -187 55 -99 30 -185 55 -192
55 -17 0 -70 -58 -90 -97 -22 -43 -46 -148 -46 -200 0 -32 5 -45 20 -53 51
-27 547 -201 905 -316 99 -32 186 -64 192 -70 7 -7 10 -21 6 -31 -6 -17 -5
-17 15 1 21 19 22 18 31 -5 9 -23 10 -23 10 -3 1 17 9 22 41 27 22 3 62 19 90
36 28 17 51 31 53 31 1 0 3 -16 4 -34 2 -19 11 -56 21 -82 15 -38 17 -55 9
-94 -8 -44 -7 -53 19 -102 16 -29 39 -57 51 -63 12 -5 24 -18 27 -30 8 -27 6
-135 -2 -161 -4 -12 -52 -59 -107 -104 -55 -46 -102 -86 -105 -89 -3 -3 -54
-51 -114 -106 -125 -114 -345 -349 -418 -444 -27 -36 -63 -94 -81 -130 -27
-55 -32 -77 -32 -138 0 -85 17 -116 86 -151 34 -18 56 -23 99 -20 102 7 170
55 335 238 144 160 288 310 292 306 3 -3 0 -20 -6 -38 l-11 -33 26 30 26 30
-6 -74 c-4 -41 -9 -86 -13 -100 -6 -25 -6 -25 20 -8 14 9 28 17 30 17 3 0 6
-33 9 -72 5 -84 42 -183 58 -158 5 8 10 26 10 40 0 24 1 23 30 -10 37 -43 60
-83 76 -135 10 -33 13 -37 19 -20 21 63 20 62 40 31 10 -15 21 -55 24 -89 l6
-62 23 36 c12 20 22 41 22 48 0 29 21 6 32 -34 11 -42 13 -44 30 -28 10 9 20
14 21 12 2 -2 18 -30 36 -61 30 -54 72 -98 93 -98 5 0 2 10 -6 22 -18 25 -22
88 -6 88 6 0 10 -4 10 -9 0 -13 50 -71 61 -71 5 0 9 11 9 25 0 43 24 30 64
-33 31 -49 48 -50 57 -3 4 18 14 40 23 49 14 14 16 13 26 -12 5 -15 10 -50 10
-77 0 -48 12 -65 24 -33 9 23 7 36 -3 29 -6 -3 -6 7 0 27 5 18 9 48 9 67 0 29
2 32 15 21 13 -11 15 -6 16 31 0 33 2 39 9 24 10 -26 2 -70 -22 -118 -11 -22
-17 -41 -15 -44 6 -5 44 47 56 78 9 24 10 24 23 -9 7 -18 17 -31 22 -29 6 2
25 25 43 51 31 45 33 46 38 23 4 -13 0 -41 -9 -61 -31 -74 37 -22 83 63 18 34
35 61 38 61 4 0 15 -7 25 -17 17 -15 18 -15 18 5 0 12 -4 22 -8 22 -15 0 -32
49 -31 88 1 32 2 34 8 12 7 -25 8 -24 15 7 4 18 12 36 18 39 8 5 9 -1 4 -17
-15 -52 -19 -119 -7 -119 6 0 11 6 11 14 0 32 20 25 39 -13 26 -50 43 -62 35
-23 -8 38 11 104 36 127 19 18 20 17 20 -1 1 -10 7 -30 15 -44 l14 -25 1 33
c0 40 29 98 64 131 14 14 26 31 26 38 0 8 5 11 10 8 6 -3 10 -20 10 -36 0 -39
16 -29 41 25 13 28 19 64 19 114 0 71 1 72 21 62 11 -7 23 -9 26 -7 2 3 -5 10
-16 16 -34 19 -79 131 -52 131 6 0 11 -9 11 -20 0 -13 5 -18 15 -14 12 5 15
-2 15 -30 0 -26 8 -43 30 -66 16 -16 31 -30 34 -30 3 0 -4 21 -15 46 -12 26
-23 78 -26 122 l-6 77 28 -25 27 -25 -7 24 c-4 14 -18 45 -31 69 -13 25 -24
54 -24 66 0 12 16 -13 35 -54 25 -54 33 -83 29 -104 -4 -18 -2 -26 4 -22 9 5
119 -108 315 -325 48 -53 107 -110 132 -128 113 -81 233 -82 310 -1 28 29 30
36 30 109 0 71 -4 85 -39 154 -21 42 -75 121 -119 174 -108 130 -401 422 -559
557 -121 102 -127 110 -137 157 -13 61 -14 75 -1 120 6 20 20 41 34 48 13 8
33 36 46 68 18 45 21 62 14 96 -8 34 -5 54 13 105 13 35 23 72 23 83 0 19 1
18 38 -4 50 -31 89 -47 112 -47 54 0 1099 351 1190 400 21 11 22 17 17 84 -8
109 -61 229 -113 256 -21 12 -90 -5 -308 -75 -90 -28 -100 -30 -90 -12 6 8 3
8 -9 -2 -28 -22 -47 -6 -48 41 l-1 43 -12 -37 c-16 -52 -23 -55 -57 -22 l-31
29 16 -32 c21 -41 20 -43 -6 -43 -21 -1 -21 -2 -5 -11 19 -11 37 -4 37 14 0
19 62 12 83 -10 20 -20 21 -20 156 24 205 65 248 75 271 63 33 -18 82 -136 88
-211 4 -66 4 -67 -24 -82 -44 -23 -359 -136 -644 -230 -407 -136 -488 -160
-526 -154 -45 8 -141 73 -160 109 -17 33 -10 55 12 37 17 -14 18 -8 2 26 -15
34 3 73 42 87 35 12 32 27 -5 20 -39 -7 -29 7 19 28 24 10 48 25 53 33 11 19
34 26 53 16 23 -11 570 174 555 188 -8 8 -89 -15 -288 -82 l-277 -93 -1 31
c-1 20 -3 25 -6 12 -10 -47 -12 -49 -35 -29 -20 19 -21 19 -14 -2 5 -18 0 -25
-36 -42 -70 -33 -72 -21 -19 173 34 123 39 246 13 331 -29 93 -72 159 -128
192 -44 26 -45 28 -41 71 6 60 35 96 77 96 24 0 38 -7 53 -28 19 -24 20 -33
11 -77 -6 -28 -7 -50 -4 -50 19 0 60 53 71 91 14 51 2 144 -26 202 -43 92
-154 178 -272 212 -96 28 -104 36 -33 30 41 -4 88 -17 128 -35 34 -16 62 -26
62 -22 0 8 -81 63 -127 86 -45 23 -149 46 -208 46 -41 1 -47 3 -31 11 11 7 52
10 104 7 l86 -5 -41 18 c-70 29 -157 42 -256 37 l-92 -5 40 19 c33 15 59 18
147 16 59 -2 104 0 100 3 -20 19 -114 60 -172 76 -48 13 -101 18 -205 17 -159
0 -227 -17 -323 -80 -42 -28 -51 -31 -42 -15 14 27 91 79 149 102 l46 18 -35
-1 c-19 -1 -48 -3 -65 -5z m53 -108 c-47 -32 -94 -100 -119 -172 -14 -42 -19
-81 -18 -157 2 -100 2 -100 11 -41 25 170 81 263 207 347 48 32 43 19 -7 -21
-118 -93 -161 -182 -170 -348 -5 -115 5 -181 49 -322 16 -51 28 -95 26 -97 -5
-6 -60 137 -101 266 -29 90 -33 98 -29 55 3 -27 12 -78 20 -113 8 -35 13 -66
10 -68 -6 -6 -52 113 -84 216 l-24 75 5 -65 c3 -36 8 -74 12 -85 4 -12 3 -17
-2 -12 -5 5 -17 29 -26 55 l-16 47 -1 -35 c0 -19 5 -63 13 -97 7 -35 9 -63 6
-63 -14 0 -58 117 -70 188 -9 56 -9 88 0 145 11 67 66 205 77 194 2 -3 -2 -18
-10 -34 -23 -45 -47 -167 -46 -235 l1 -63 14 75 c7 41 19 88 25 105 27 70 62
134 89 166 30 34 30 33 -7 -41 -37 -73 -38 -77 -36 -180 2 -147 21 -202 22
-65 1 151 43 276 113 341 40 37 79 64 93 64 5 0 -7 -11 -27 -25z m-254 -17
c-5 -7 -20 -31 -35 -53 -50 -75 -63 -137 -63 -285 0 -77 6 -154 13 -180 22
-80 23 -87 6 -58 -18 32 -54 179 -56 228 l-1 35 -9 -40 c-10 -52 -10 -149 1
-205 4 -25 7 -47 5 -49 -8 -8 -76 152 -85 201 -6 28 -12 54 -15 56 -11 11 -4
-96 8 -145 18 -67 4 -59 -22 12 -39 103 -37 202 4 302 20 48 28 38 11 -12 -8
-22 -17 -62 -20 -90 l-6 -50 19 55 c28 81 57 141 86 175 24 29 24 27 -6 -38
-36 -77 -47 -167 -33 -264 l8 -58 7 77 c8 81 47 205 84 271 12 22 39 59 60 83
39 44 53 55 39 32z m470 -51 c-58 -62 -99 -130 -129 -216 -24 -71 -17 -80 17
-21 42 74 130 158 206 199 35 18 65 31 68 28 2 -2 -22 -20 -55 -40 -70 -44
-112 -90 -140 -153 -29 -65 -26 -72 12 -27 70 86 163 136 272 147 l60 6 -60
-18 c-130 -40 -179 -73 -216 -144 -24 -47 -24 -57 0 -27 10 13 38 35 62 48
l44 24 -58 -61 c-73 -78 -101 -137 -102 -219 0 -33 -3 -56 -7 -50 -13 20 -8
150 7 207 18 67 18 65 0 50 -19 -16 -55 -113 -56 -153 -1 -31 -1 -31 -11 8 -5
22 -7 69 -3 105 5 57 4 62 -8 45 -33 -48 -51 -121 -51 -200 l0 -80 -13 55
c-13 52 -12 142 2 255 l5 40 -27 -55 c-22 -46 -26 -69 -27 -145 -1 -49 3 -106
7 -125 6 -25 5 -31 -2 -20 -10 15 -33 110 -49 205 l-9 50 -7 -80 c-11 -103
-25 -131 -26 -48 0 80 23 201 49 252 26 49 73 104 115 133 l31 21 -31 -34
c-41 -45 -61 -84 -79 -161 -20 -86 -18 -92 8 -28 29 71 73 133 134 191 45 43
114 99 122 99 2 0 -23 -28 -55 -63z m-800 -204 l-4 -48 20 44 c23 51 36 51 18
0 -6 -19 -12 -80 -12 -136 -1 -82 -3 -100 -13 -87 -16 22 -33 105 -33 163 0
41 16 111 25 111 1 0 1 -21 -1 -47z m1238 29 c10 -4 -13 -8 -51 -9 -79 -2
-115 -14 -155 -51 -27 -25 -76 -95 -76 -107 0 -4 21 12 48 33 26 22 67 50 92
62 l45 23 -47 -42 c-45 -40 -108 -145 -108 -180 0 -9 -5 -23 -11 -31 -10 -15
-9 -3 7 80 14 73 -46 -4 -71 -90 l-15 -55 5 58 c5 51 18 102 51 192 6 16 0 14
-25 -10 -48 -45 -70 -85 -86 -162 l-14 -68 3 65 c2 41 11 81 24 106 27 53 111
130 169 155 77 33 174 47 215 31z m-1342 -130 c-7 -55 -1 -148 15 -217 3 -11
-3 -4 -12 15 -21 44 -29 172 -13 229 16 60 21 47 10 -27z m1624 -19 c45 -64
65 -120 65 -183 0 -64 -17 -119 -18 -60 -1 49 -32 94 -86 125 -81 48 -144 14
-164 -87 l-9 -43 -1 38 c-1 44 19 89 51 111 22 16 22 16 -10 16 -60 0 -152
-66 -152 -108 0 -6 -4 -14 -10 -17 -13 -8 -2 51 18 90 17 36 59 82 87 98 13 7
9 -2 -12 -27 -39 -43 -41 -52 -10 -32 58 37 156 28 232 -21 44 -29 40 -20 -19
46 -37 40 -6 29 37 -15 15 -14 27 -24 27 -21 0 13 -46 85 -84 132 l-41 49 34
-23 c19 -14 48 -44 65 -68z m-1544 -148 c8 -22 8 -27 -1 -18 -20 20 -39 125
-32 173 7 43 8 41 15 -40 5 -47 13 -98 18 -115z m1300 179 c-56 -17 -100 -65
-146 -159 -37 -76 -41 -72 -20 20 l14 60 -24 -30 c-40 -48 -56 -84 -70 -159
l-14 -71 4 72 c2 53 11 87 33 135 31 66 77 128 96 128 6 0 0 -12 -14 -27 l-24
-26 40 23 c41 25 115 49 150 48 11 0 0 -6 -25 -14z m-1411 -226 c23 -67 20
-75 -8 -20 -29 57 -44 145 -35 205 l8 52 7 -90 c4 -49 17 -116 28 -147z m-87
139 c-2 -39 1 -90 7 -111 14 -52 6 -58 -13 -11 -19 44 -21 119 -5 164 6 17 12
31 13 31 2 0 1 -33 -2 -73z m25 -54 c-2 -16 -4 -3 -4 27 0 30 2 43 4 28 2 -16
2 -40 0 -55z m-12 -185 c19 -27 31 -48 27 -48 -13 0 -58 52 -76 87 -20 40 -20
55 0 28 8 -11 30 -41 49 -67z m213 -72 c5 -3 7 7 5 22 l-5 27 19 -30 c11 -16
28 -37 38 -45 17 -14 17 -14 7 7 -23 42 -12 46 23 7 l34 -39 -9 35 c-17 61
-12 79 10 35 23 -46 65 -100 56 -72 -7 23 2 21 26 -5 18 -21 19 -22 15 -3 -3
11 -8 29 -11 40 -7 19 -6 19 6 1 29 -42 61 -77 81 -87 18 -10 19 -9 13 10 -18
61 -18 66 4 33 26 -38 35 -37 20 2 -22 58 -8 58 21 1 42 -84 49 -88 50 -30 l0
50 21 -67 c24 -79 40 -89 33 -20 l-6 47 24 -50 c22 -45 25 -47 28 -25 l4 25
17 -30 17 -30 -6 43 c-3 23 -3 42 1 42 3 0 16 -21 28 -47 16 -34 24 -43 26
-30 4 17 6 17 29 -5 24 -21 25 -21 20 -3 -3 11 -8 36 -11 55 -6 33 -6 34 8 15
49 -65 45 -63 46 -26 l0 34 30 -41 c35 -48 44 -53 30 -16 -17 43 -11 50 14 19
31 -39 40 -29 21 25 -24 68 -18 76 20 26 20 -25 38 -46 41 -46 2 0 2 12 -2 28
l-6 27 27 -30 c18 -20 23 -23 16 -9 -6 12 -15 40 -20 64 l-9 42 48 -54 c46
-51 48 -52 44 -23 l-5 30 17 -22 c20 -28 39 -30 24 -4 -5 11 -10 32 -10 48 l0
28 26 -32 c26 -34 51 -45 40 -18 -7 18 15 20 32 3 9 -9 12 -1 12 38 l1 49 18
-34 c15 -28 19 -31 25 -16 6 17 7 17 20 0 13 -18 14 -18 20 3 l7 22 21 -22
c18 -21 19 -21 13 -3 -4 11 -9 36 -11 55 l-5 35 20 -37 c22 -39 49 -64 38 -35
-3 9 -2 27 3 39 6 16 9 18 9 7 1 -9 9 -27 19 -38 l17 -22 29 30 c43 45 50 38
16 -18 -48 -77 -43 -133 24 -290 29 -69 57 -135 61 -146 9 -25 22 -195 15
-195 -3 0 -11 13 -17 28 -38 86 -97 134 -178 147 -36 5 -35 4 15 -14 69 -24
128 -87 158 -166 25 -65 30 -122 7 -70 -14 29 -14 28 -15 -36 0 -36 -3 -102
-6 -145 -5 -72 -4 -77 10 -59 8 11 23 29 33 39 10 11 14 17 8 13 -5 -3 -10 6
-10 19 0 13 1 24 2 24 2 0 12 -18 23 -40 23 -45 26 -106 8 -146 l-13 -28 -6
30 c-5 22 -7 15 -8 -27 0 -31 4 -70 10 -88 9 -26 8 -41 -6 -79 -10 -26 -24
-55 -33 -64 -17 -21 -164 -78 -199 -78 -13 0 -45 14 -71 32 -81 56 -184 50
-237 -13 -11 -13 -13 -18 -5 -11 17 14 34 16 25 2 -4 -6 1 -7 11 -3 15 6 15 3
-2 -28 -10 -19 -20 -36 -21 -38 -1 -1 -25 5 -52 14 -72 24 -147 22 -199 -4
l-42 -21 0 30 c0 18 -4 29 -10 25 -5 -3 -10 -17 -10 -29 l0 -23 -42 20 c-50
25 -131 26 -197 2 -24 -8 -45 -15 -46 -15 -2 0 -11 12 -20 27 -20 29 -29 77
-14 67 5 -3 7 -9 4 -14 -3 -4 3 -14 13 -21 15 -13 16 -12 3 4 -15 20 -2 23 19
5 8 -7 6 -2 -5 11 -53 63 -156 69 -237 13 -26 -18 -57 -32 -70 -32 -13 0 -62
15 -109 33 -83 32 -84 32 -112 90 -24 50 -27 62 -17 95 5 20 9 62 9 92 -1 43
-3 49 -8 25 l-7 -30 -12 34 c-18 50 -15 102 8 136 18 26 26 23 21 -8 -1 -5 7
-11 18 -14 11 -3 17 -11 15 -18 -3 -7 0 -16 7 -21 10 -5 11 15 6 92 -4 54 -7
119 -8 144 -1 41 -2 42 -9 15 -8 -30 -8 -30 -9 8 -2 76 74 187 154 224 l30 14
-35 -7 c-56 -11 -97 -49 -141 -134 -36 -71 -34 -27 6 110 30 104 66 278 65
315 -1 6 -8 1 -17 -10 -15 -20 -15 -19 -9 5 20 80 20 77 3 55 -22 -28 -21 -12
3 35 l20 39 -46 22 c-68 34 -78 54 -14 29 46 -18 52 -19 46 -4 -5 12 -2 15 11
9 10 -4 27 -10 38 -13 19 -5 19 -4 3 15 -28 31 -21 37 16 15 l33 -20 -18 39
c-28 57 -23 67 10 21 16 -22 34 -43 39 -46z m1500 -86 c22 -30 48 -125 31
-114 -5 3 -9 -14 -10 -38 -1 -73 -17 -92 -19 -23 l-2 60 -12 -50 -12 -50 -13
40 c-21 64 -26 59 -24 -28 1 -57 -1 -73 -7 -52 l-8 30 -2 -30 c-1 -25 -6 -17
-25 40 -29 83 -28 78 -13 69 8 -5 9 -2 5 9 -19 46 -18 51 3 27 l21 -25 -7 25
c-4 14 -9 32 -12 40 -5 12 0 11 22 -4 l29 -18 -7 26 c-8 34 -1 33 19 -1 l15
-28 -6 30 c-4 17 -12 43 -20 58 l-13 29 25 -17 c25 -16 26 -16 19 4 -9 29 -3
26 23 -9z m-1784 -32 l-7 -23 23 20 23 20 -7 -20 c-4 -11 -10 -33 -12 -50 l-5
-30 16 25 16 25 -7 -35 -6 -35 22 23 c27 28 34 24 20 -12 -14 -38 -12 -56 4
-27 l13 24 5 -27 c3 -15 -3 -62 -12 -104 -12 -52 -19 -67 -20 -47 -2 29 -2 29
-9 5 -7 -21 -9 -17 -15 27 -4 29 -5 67 -2 85 3 20 -1 13 -11 -17 -13 -42 -17
-47 -24 -30 -4 11 -9 36 -10 55 -2 22 -5 11 -8 -30 l-6 -65 -13 87 c-8 47 -11
97 -7 110 8 27 33 68 41 68 3 0 2 -10 -2 -22z m1811 -330 c-9 -59 -55 -231
-63 -240 -4 -4 -7 19 -7 51 0 33 3 57 8 54 4 -2 7 17 8 44 0 36 3 43 9 28 7
-16 9 -12 10 20 1 31 3 35 9 20 7 -16 10 -12 15 23 4 23 10 42 13 42 3 0 2
-19 -2 -42z m-1812 -22 c4 4 7 -2 7 -14 0 -12 4 -22 9 -22 5 0 12 -11 15 -25
4 -14 10 -24 14 -21 4 2 8 -24 10 -58 3 -74 -5 -65 -53 69 -37 101 -43 125
-22 87 7 -12 16 -19 20 -16z m52 -321 c6 -25 5 -28 -6 -17 -8 7 -14 39 -15 80
-2 64 -2 65 5 17 4 -27 11 -63 16 -80z m1724 68 c0 -10 -7 -34 -14 -53 -10
-26 -14 -29 -14 -14 -1 34 11 84 20 84 5 0 9 -8 8 -17z m-1209 -693 c6 -10 10
-27 10 -37 0 -12 -7 -7 -21 17 -12 19 -31 46 -43 59 l-21 25 33 -23 c17 -12
37 -31 42 -41z m705 28 c-15 -18 -31 -43 -36 -56 -12 -31 -24 -22 -14 10 7 20
60 78 72 78 3 0 -7 -14 -22 -32z m-773 -3 c7 7 45 -37 53 -62 4 -14 2 -23 -4
-23 -6 0 -11 8 -11 18 0 9 -7 26 -15 36 -19 25 -19 18 0 -27 9 -23 11 -38 5
-42 -6 -3 -10 0 -10 8 0 8 -12 36 -26 62 -14 27 -19 43 -11 37 8 -7 16 -10 19
-7z m814 -14 c-9 -9 -22 -35 -30 -57 -11 -29 -15 -33 -15 -16 -1 13 4 33 10
45 10 21 10 21 -5 3 -9 -11 -16 -26 -16 -33 0 -7 -4 -13 -10 -13 -13 0 -13 6
1 33 19 36 37 53 60 54 20 2 20 1 5 -16z m284 -70 c0 -8 -13 3 -30 24 -16 21
-30 43 -30 49 1 16 59 -56 60 -73z m-1344 18 c-14 -32 -15 -32 -16 -8 0 14 5
30 12 37 18 18 20 8 4 -29z m1413 -84 c24 -54 9 -50 -19 5 -12 23 -20 57 -19
82 l1 43 9 -42 c4 -24 17 -63 28 -88z m-1472 60 l11 30 1 -31 c1 -36 -16 -93
-34 -112 -10 -11 -12 -9 -8 15 5 23 3 26 -8 16 -23 -22 -30 -14 -14 17 8 16
19 51 23 77 l7 48 5 -45 5 -45 12 30z m611 45 c15 -1 15 -2 2 -9 -29 -16 -63
-24 -56 -12 10 16 -27 14 -50 -4 -10 -8 -23 -15 -29 -15 -16 0 34 31 63 40 15
5 33 6 40 4 8 -2 21 -4 30 -4z m267 0 c7 0 23 -9 36 -20 23 -19 22 -19 -26 1
-49 21 -78 39 -42 26 10 -4 25 -7 32 -7z m-672 -13 c4 17 4 17 12 0 5 -12 2
-38 -8 -65 -13 -40 -15 -43 -16 -19 -1 15 -8 44 -16 64 -15 36 -15 36 4 19 18
-17 19 -17 24 1z m257 -8 c-14 -11 -33 -24 -44 -30 -32 -19 -7 11 28 32 40 25
48 24 16 -2z m380 6 c31 -18 16 -18 -30 0 -23 9 -28 14 -15 14 11 0 31 -6 45
-14z m132 -16 l33 -30 -42 27 c-24 15 -43 28 -43 30 0 12 24 0 52 -27z m231
-39 l6 -45 -25 28 c-24 28 -33 54 -14 42 6 -4 10 6 10 22 1 41 16 9 23 -47z
m-543 50 c11 -7 6 -10 -20 -10 -26 0 -31 3 -20 10 8 5 17 10 20 10 3 0 12 -5
20 -10z m120 0 c12 -8 9 -10 -13 -10 -16 0 -26 4 -22 10 8 12 16 12 35 0z
m465 -45 l18 -30 -21 19 c-12 11 -22 26 -22 34 0 17 -1 18 25 -23z m-860 17
c-6 -5 -32 -29 -60 -53 l-50 -43 50 52 c27 29 54 52 59 52 6 0 6 -3 1 -8z
m241 -23 c-27 -16 -46 -33 -43 -36 4 -3 -5 -25 -18 -48 -14 -23 -25 -50 -26
-61 -1 -10 -7 -1 -14 21 -13 39 -14 39 -16 10 -1 -26 -2 -27 -6 -7 -6 29 12
75 38 98 20 18 20 17 10 -10 -6 -15 -11 -35 -11 -44 0 -13 2 -13 14 3 8 11 12
23 9 28 -10 17 64 77 96 77 8 0 -7 -14 -33 -31z m152 17 c35 -18 66 -52 58
-64 -3 -5 1 -15 9 -22 12 -10 15 -9 15 4 0 10 -5 26 -10 37 -8 13 -7 19 0 19
19 0 50 -64 49 -100 l-1 -35 -8 30 c-7 28 -8 28 -9 5 -2 -43 -17 -55 -25 -20
-3 17 -15 45 -27 61 -11 16 -17 29 -13 29 14 0 -21 32 -55 50 -20 11 -30 19
-23 20 7 0 25 -6 40 -14z m273 -6 c15 -12 38 -35 50 -53 18 -26 12 -22 -32 18
-29 28 -56 51 -58 53 -2 1 -1 2 3 2 4 0 21 -9 37 -20z m269 -49 c0 -23 -19
-69 -20 -47 0 5 -10 1 -22 -10 l-22 -19 17 25 c9 13 17 34 18 45 1 17 2 16 9
-5 7 -23 8 -23 9 -3 1 12 -4 34 -9 50 -9 26 -9 27 5 9 8 -11 15 -31 15 -45z
m-1216 34 c-9 -22 15 -84 38 -96 11 -6 27 -8 36 -5 13 5 12 2 -2 -9 -11 -8
-32 -15 -48 -15 -28 0 -68 30 -68 52 0 6 -2 9 -5 6 -14 -13 20 -59 49 -66 46
-13 73 -2 129 53 50 49 48 38 -2 -18 -38 -42 -78 -60 -116 -53 -51 10 -72 41
-66 101 1 16 3 17 10 6 7 -11 13 -6 25 22 14 35 32 54 20 22z m373 -22 c-8
-10 -20 -32 -26 -48 l-11 -30 18 24 c9 14 25 34 34 45 16 19 16 17 -1 -34 -25
-76 -32 -90 -27 -55 l4 30 -24 -30 -25 -30 7 28 c9 38 -2 34 -25 -10 -11 -21
-20 -34 -21 -30 -1 24 33 115 51 137 l20 25 -11 -25 -12 -25 28 27 c30 29 48
30 21 1z m203 17 c9 15 31 -50 29 -85 -1 -11 -6 0 -12 25 l-11 45 -6 -55 c-5
-48 -7 -52 -14 -27 -10 33 -19 34 -34 5 -10 -21 -11 -20 -5 7 9 48 35 102 40
86 4 -10 7 -11 13 -1z m50 -2 c0 6 4 12 10 12 11 0 45 -109 36 -117 -3 -3 -8
7 -12 22 l-7 28 -18 -34 -18 -34 -1 45 c0 25 -3 56 -6 70 -4 20 -3 22 5 10 7
-10 11 -11 11 -2z m236 -24 c-10 16 -13 25 -7 22 6 -4 18 -21 27 -38 20 -38
44 -129 32 -122 -4 3 -8 11 -8 17 0 7 -9 26 -20 42 l-20 30 6 -35 6 -35 -25
30 c-25 29 -26 29 -20 5 3 -14 3 -23 0 -20 -6 6 -45 120 -41 120 2 0 17 -19
34 -42 37 -50 39 -39 4 22 l-25 45 37 -35 c36 -33 37 -34 20 -6z m-568 -6 c-8
-13 -18 -44 -22 -69 -4 -26 -13 -55 -21 -65 -11 -16 -11 -10 1 35 17 65 12 76
-9 24 -8 -21 -23 -47 -31 -58 -16 -19 -16 -19 -10 10 l6 30 -23 -32 c-13 -18
-28 -33 -33 -33 -5 0 -2 8 6 18 9 9 28 41 42 70 29 58 39 66 31 25 -6 -25 -5
-26 6 -8 13 22 60 75 67 75 2 0 -2 -10 -10 -22z m216 -20 c-10 -18 -21 -46
-25 -63 l-7 -30 -1 29 c-1 15 9 46 21 67 26 47 37 45 12 -3z m191 -10 c14 -29
25 -60 24 -68 0 -8 -5 -4 -11 10 -7 14 -20 43 -30 64 -20 44 -20 46 -13 46 3
0 17 -24 30 -52z m237 -33 c3 -27 8 -59 13 -69 6 -13 5 -17 -3 -12 -6 3 -16
32 -22 64 -7 31 -19 68 -27 81 l-15 24 25 -19 c20 -15 26 -30 29 -69z m201
-34 c31 -12 97 8 97 29 0 7 -9 5 -22 -4 -26 -18 -66 -21 -88 -5 -12 8 -10 10
10 8 62 -3 71 0 86 38 14 32 17 35 26 19 10 -17 8 -32 -8 -70 -5 -14 -4 -17 6
-11 8 5 11 3 8 -5 -2 -8 -10 -16 -18 -18 -8 -3 -10 0 -5 8 6 10 4 11 -11 5
-65 -28 -117 -9 -174 66 l-33 44 49 -47 c27 -26 62 -52 77 -57z m197 30 c13
-68 13 -136 0 -106 -8 18 -9 18 -10 -5 -1 -19 -5 -14 -15 20 -7 25 -16 54 -21
65 -7 18 -6 19 10 5 17 -13 18 -11 15 37 -5 65 7 55 21 -16z m-344 6 c4 -12
18 -40 31 -62 l24 -40 -31 35 -31 35 7 -30 c9 -40 -10 -23 -31 28 -10 25 -12
36 -4 31 8 -5 10 1 7 20 -4 21 -3 24 8 15 7 -6 16 -21 20 -32z m-1155 -8 c-5
-13 -53 -63 -107 -111 -120 -105 -272 -259 -387 -391 -89 -103 -106 -141 -87
-191 5 -14 6 -26 2 -25 -9 1 -92 97 -92 107 0 14 206 236 311 336 180 171 352
312 367 301 1 -1 -2 -13 -7 -26z m1659 -78 c36 -31 67 -58 70 -61 3 -3 50 -46
104 -95 124 -112 346 -353 346 -375 0 -9 -19 -35 -43 -58 l-43 -42 4 35 c2 19
1 46 -2 59 -11 46 -282 335 -498 532 -53 48 -78 78 -78 93 0 22 0 22 38 -6 20
-15 66 -52 102 -82z m-1324 44 c-9 -14 -31 -32 -49 -41 l-32 -16 35 38 c20 23
24 29 8 16 -31 -28 -95 -45 -117 -32 -12 7 -5 9 24 10 26 0 53 9 76 25 20 13
39 21 43 18 3 -3 9 2 13 13 4 11 8 13 11 6 2 -7 -3 -24 -12 -37z m874 8 c0 4
18 -2 40 -13 21 -11 54 -20 72 -20 25 0 29 -3 18 -10 -19 -12 -55 -3 -100 23
l-35 20 30 -32 30 -33 -28 13 c-15 7 -36 27 -47 44 -26 41 -25 58 0 25 11 -14
20 -22 20 -17z m-1174 -88 c-25 -56 -44 -76 -25 -29 13 35 8 38 -19 14 -12
-12 -22 -17 -22 -12 0 5 11 19 24 31 14 13 33 40 43 60 16 32 18 34 21 13 2
-12 -8 -47 -22 -77z m90 68 c-7 -7 -26 7 -26 19 0 6 6 6 15 -2 9 -7 13 -15 11
-17z m615 -12 c-12 -22 -77 -55 -91 -46 -6 3 -10 1 -10 -5 0 -7 -6 -10 -14 -7
-8 3 -16 2 -18 -4 -3 -8 -16 -12 -73 -23 -5 -1 -16 -5 -23 -10 -7 -4 -16 -5
-19 -2 -3 3 -15 0 -26 -5 -15 -9 -13 -3 9 25 31 39 43 41 23 4 -12 -23 -12
-23 10 -4 11 11 21 15 21 10 0 -5 7 0 15 10 10 13 15 15 15 6 0 -9 5 -8 16 6
14 18 15 18 8 -6 -5 -21 -4 -23 7 -12 8 7 20 27 27 45 l12 32 -5 -34 c-4 -27
-2 -31 8 -22 8 6 17 8 20 4 4 -3 9 2 13 11 3 9 10 14 14 11 5 -3 11 -1 15 5 4
6 10 8 15 5 4 -3 13 2 20 10 17 21 23 19 11 -4z m72 -11 c4 0 5 6 2 13 -4 6 1
3 9 -7 12 -15 16 -16 16 -5 1 8 7 3 15 -11 9 -15 15 -19 15 -10 0 11 4 10 16
-5 13 -18 14 -17 9 15 l-5 35 19 -42 c23 -49 36 -56 27 -15 l-6 27 15 -27 c18
-31 28 -37 18 -10 -4 11 1 8 15 -8 18 -21 21 -22 15 -5 -5 17 -3 16 15 -5 23
-27 29 -21 12 11 -17 30 -5 22 25 -17 24 -32 25 -35 6 -25 -11 7 -21 10 -21 7
0 -3 -20 1 -45 8 -25 8 -45 12 -45 8 0 -3 -9 3 -20 13 -11 10 -20 15 -20 11 0
-4 -5 -4 -12 0 -7 4 -23 9 -37 10 -13 2 -35 14 -48 28 -13 14 -18 21 -11 16 7
-6 16 -10 21 -10z m-612 -18 c15 3 26 1 23 -4 -3 -4 -15 -8 -27 -9 -20 -1 -20
-2 3 -9 l25 -8 -26 -1 c-16 -1 -35 9 -50 25 l-24 27 24 -13 c13 -6 36 -10 52
-8z m1174 -7 c-16 -13 -41 -24 -55 -23 l-25 1 25 5 c23 4 24 5 5 13 -18 7 -18
8 5 8 14 1 32 6 40 11 30 20 34 9 5 -15z m-1409 6 c-3 -4 -52 -50 -108 -101
l-103 -92 103 101 c94 92 123 116 108 92z m784 -32 c0 -10 5 -19 10 -19 6 0
10 8 10 18 0 29 10 33 41 16 22 -11 29 -22 29 -45 0 -47 -51 -85 -72 -54 -6 7
-10 7 -15 -1 -12 -17 -45 -12 -51 8 -2 10 -8 15 -13 12 -5 -3 -9 10 -9 28 0
26 6 37 27 50 31 19 43 15 43 -13z m850 -71 c0 -15 -9 -8 -39 34 -17 23 -31
49 -31 57 0 8 16 -8 35 -35 19 -27 35 -52 35 -56z m-144 4 c1 -57 -1 -79 -7
-65 -15 39 -16 153 -1 153 4 0 8 -39 8 -88z m224 -8 l75 -78 -92 84 c-51 45
-93 85 -93 87 0 12 44 -25 110 -93z m-1569 13 c-8 -8 -11 -1 -11 24 0 46 14
60 18 19 2 -18 -1 -37 -7 -43z m-55 -47 c-13 -53 -14 -54 -15 -17 -1 21 5 59
12 85 11 42 12 44 14 17 2 -16 -3 -55 -11 -85z m254 95 c-20 -24 -4 -30 27
-10 l28 17 -21 -21 c-17 -19 -27 -21 -65 -15 l-44 7 40 18 c50 22 50 22 35 4z
m94 1 c-9 -24 14 -27 35 -4 12 12 21 17 21 11 0 -14 -32 -40 -50 -40 -8 0 -28
-4 -45 -8 l-30 -7 35 30 c41 36 41 36 34 18z m767 -44 c-17 -6 -48 17 -54 37
-4 18 -1 17 29 -7 19 -15 30 -28 25 -30z m106 23 c-1 -2 -18 -5 -38 -9 -29 -5
-41 -2 -60 15 l-24 21 27 -16 c35 -21 41 -20 33 4 -6 20 -6 20 29 3 20 -9 35
-17 33 -18z m-1034 18 c-7 -2 -21 -2 -30 0 -10 3 -4 5 12 5 17 0 24 -2 18 -5z
m427 -17 c0 -40 -28 -43 -43 -4 -5 15 3 22 36 27 4 0 7 -10 7 -23z m235 1 c7
-7 6 -8 -2 -3 -8 4 -13 1 -13 -7 0 -12 -20 -27 -36 -27 -2 0 -4 14 -4 31 0 27
3 30 23 24 12 -4 27 -12 32 -18z m191 2 c19 -22 19 -22 -3 -10 -13 6 -23 16
-23 21 0 15 5 12 26 -11z m227 14 c-7 -2 -21 -2 -30 0 -10 3 -4 5 12 5 17 0
24 -2 18 -5z m96 -69 c1 -17 8 -51 16 -74 8 -23 14 -63 14 -89 l-1 -46 -10 45
c-15 66 -29 100 -42 97 -12 -2 -12 11 -1 88 6 39 9 46 16 30 4 -11 8 -34 8
-51z m84 -34 c6 -51 5 -53 -8 -30 -8 14 -14 45 -14 70 0 59 14 33 22 -40z
m-1343 -30 c-4 -52 -13 -128 -20 -167 -11 -54 -11 -85 -4 -123 6 -28 8 -47 4
-43 -14 16 -30 77 -30 117 -1 38 -2 40 -15 22 -9 -12 -15 -44 -16 -80 -1 -59
-2 -60 -10 -21 -6 28 -4 62 8 114 14 60 14 81 5 117 -7 24 -11 66 -11 92 1 40
2 43 8 17 l7 -30 18 33 c23 44 31 36 11 -11 -8 -20 -15 -49 -15 -64 l1 -28 15
30 14 30 -6 -40 c-3 -22 -8 -53 -10 -70 l-5 -30 15 26 c9 15 18 53 21 85 15
149 25 165 15 24z m376 84 c-3 -9 -6 -31 -6 -50 0 -42 -22 -46 -39 -7 -9 19
-15 23 -20 14 -6 -10 -10 -9 -15 4 -15 41 -12 43 73 53 8 1 11 -4 7 -14z m478
10 c11 -4 16 -19 16 -45 0 -21 -2 -39 -4 -39 -2 0 -11 -3 -20 -6 -12 -4 -16 4
-19 43 -3 45 -4 44 -5 -14 -2 -53 -5 -63 -23 -68 -27 -9 -38 8 -40 58 -1 20
-2 43 -3 50 -1 6 15 15 34 18 19 4 38 7 42 8 3 0 13 -2 22 -5z m341 -27 c-4
-20 0 -56 9 -88 13 -43 14 -70 7 -125 l-8 -69 -2 80 c-2 92 -20 141 -22 60
l-2 -50 -7 55 c-8 58 -3 124 12 153 14 27 19 20 13 -16z m-745 1 c5 -13 9 -16
9 -8 1 11 4 11 13 2 7 -7 20 -12 30 -12 15 0 18 -9 18 -54 0 -30 -5 -58 -10
-61 -20 -12 -50 6 -50 30 0 13 -4 27 -10 30 -5 3 -10 -3 -10 -14 0 -25 -22
-27 -44 -5 -16 15 -23 94 -9 107 15 16 54 6 63 -15z m463 15 c8 -13 -12 -55
-23 -48 -16 10 -12 55 4 55 8 0 17 -3 19 -7z m-686 -25 c-3 -8 -6 -5 -6 6 -1
11 2 17 5 13 3 -3 4 -12 1 -19z m793 12 c0 -5 -2 -10 -4 -10 -3 0 -8 5 -11 10
-3 6 -1 10 4 10 6 0 11 -4 11 -10z m-270 -65 c0 -41 -4 -55 -17 -61 -30 -13
-48 -10 -47 9 0 9 1 34 2 55 2 28 8 40 25 48 32 15 37 9 37 -51z m249 8 c1 -7
-3 -13 -8 -13 -14 0 -20 25 -13 52 l6 23 7 -25 c4 -14 7 -31 8 -37z m-1175 0
c-8 -25 -15 -65 -15 -87 -1 -23 -5 -54 -10 -71 -5 -21 -7 -3 -5 55 2 56 8 96
19 118 24 45 27 40 11 -15z m455 6 c1 8 3 12 6 9 4 -3 3 -18 -1 -32 -6 -25 -7
-25 -20 -9 -7 10 -13 32 -13 48 l0 30 14 -30 c7 -16 14 -24 14 -16z m680 -6
c-5 -21 -9 -41 -9 -45 0 -5 -4 -8 -10 -8 -5 0 -10 17 -10 38 0 27 3 33 10 22
8 -12 10 -11 10 8 0 12 4 22 9 22 5 0 5 -16 0 -37z m431 -9 c11 -25 20 -68 20
-95 0 -27 5 -49 10 -49 6 0 9 3 8 8 -2 4 2 8 7 9 6 1 9 -4 7 -11 -1 -7 6 -20
15 -27 16 -12 17 -12 8 1 -6 10 -4 9 6 -2 9 -9 20 -14 25 -10 5 4 2 -2 -6 -13
-8 -11 -11 -17 -7 -14 5 4 19 -4 33 -18 13 -13 29 -21 36 -17 6 4 8 3 5 -3 -4
-6 1 -19 9 -29 9 -10 12 -13 8 -5 -4 9 -3 12 4 7 6 -4 9 -13 5 -22 -3 -9 0
-14 8 -12 8 2 13 -3 11 -9 -2 -12 11 -17 31 -14 5 1 6 -3 2 -9 -3 -6 -11 -7
-17 -4 -7 4 -8 2 -4 -5 4 -6 12 -9 17 -5 15 9 39 -15 32 -32 -3 -9 0 -14 8
-12 8 2 13 -3 11 -10 -1 -7 5 -12 15 -10 10 2 18 -3 19 -9 1 -7 2 -18 3 -24 0
-5 7 -7 14 -3 9 6 9 5 -1 -8 -10 -13 -9 -15 12 -13 21 3 24 0 20 -23 -4 -22
-3 -23 10 -13 13 11 15 9 11 -9 -3 -15 0 -20 9 -17 20 8 28 -4 15 -20 -9 -10
-22 -1 -63 44 -121 136 -165 183 -253 273 -89 92 -92 97 -102 155 -5 33 -14
73 -20 88 -12 32 -13 37 -6 37 3 0 15 -21 25 -46z m-790 12 c0 -8 2 -8 8 0 4
6 22 14 40 17 28 6 32 4 32 -16 0 -58 -13 -95 -33 -101 -12 -3 -24 -2 -27 2
-8 10 -40 11 -40 1 0 -5 -7 -9 -15 -9 -8 0 -15 5 -15 11 0 5 -4 7 -10 4 -6 -4
-10 16 -10 52 l0 59 35 -4 c19 -2 35 -9 35 -16z m530 -24 c1 -20 7 -64 15 -97
16 -66 19 -163 6 -183 -4 -8 -8 11 -7 45 0 32 -4 76 -8 97 -12 64 -26 23 -27
-84 -1 -78 -2 -89 -10 -60 -5 19 -15 53 -21 75 l-12 40 -6 -40 c-5 -28 -8 -9
-11 68 -3 84 -1 104 8 91 6 -9 15 -35 19 -57 l7 -42 13 50 c8 28 14 72 14 98
0 30 4 46 10 42 6 -3 10 -23 10 -43z m-1080 2 c-6 -14 -10 -40 -10 -59 0 -19
-5 -37 -12 -41 -15 -9 -4 92 13 112 17 21 20 17 9 -12z m254 -28 c-3 -21 -9
-35 -11 -32 -3 3 -2 21 1 42 4 20 10 34 12 31 3 -3 2 -21 -2 -41z m606 -21
c-15 -66 -29 -90 -30 -50 -1 30 -1 30 -15 -8 -19 -56 -23 -55 -27 11 -1 33 0
58 5 55 4 -2 7 -11 7 -19 0 -8 5 -12 10 -9 6 3 10 15 10 26 0 24 20 26 21 2 0
-10 5 -3 10 16 15 49 21 31 9 -24z m-549 -4 c6 10 9 1 9 -29 0 -49 -15 -48
-26 1 -7 31 -8 32 -15 7 -7 -24 -7 -23 -8 7 -1 17 2 39 6 49 5 15 9 12 16 -16
6 -25 11 -30 18 -19z m-248 12 l-4 -28 16 28 c24 42 25 32 3 -25 -23 -62 -36
-192 -20 -202 7 -4 13 11 17 41 3 27 13 62 21 78 l15 30 -6 -29 c-3 -15 -3
-60 1 -98 9 -96 30 -74 27 30 -1 73 0 75 12 42 10 -29 13 -32 17 -15 3 11 6
-20 7 -70 1 -81 3 -88 16 -71 20 26 19 11 -5 -94 -11 -47 -20 -101 -20 -120 0
-23 -3 -31 -9 -21 -5 7 -7 63 -5 125 l4 111 -21 -80 c-22 -90 -36 -115 -31
-54 2 22 1 70 -3 107 l-7 67 -24 -75 -23 -75 -1 90 c-2 107 -18 164 -20 70
l-1 -60 -21 65 c-19 59 -20 71 -9 135 6 38 15 73 20 78 4 4 4 -14 0 -40 -4
-26 -8 -64 -8 -83 l0 -35 20 50 c11 28 20 66 20 85 -1 41 7 70 18 70 5 0 6
-12 4 -27z m1161 -102 c23 -64 18 -74 -8 -16 -30 65 -38 99 -29 122 6 14 9 8
14 -22 4 -22 15 -60 23 -84z m-1375 64 c0 -25 -48 -136 -49 -114 0 9 7 33 15
52 8 20 15 53 15 74 0 28 3 34 10 23 5 -8 10 -24 9 -35z m513 -30 c-2 -19 -8
-32 -13 -29 -10 6 -12 45 -3 69 10 26 21 0 16 -40z m43 25 c-3 -5 -2 -10 3
-10 6 0 6 -13 0 -35 -6 -19 -15 -32 -20 -29 -12 8 -10 58 4 72 15 15 21 16 13
2z m335 -22 c0 -6 -7 -5 -15 2 -8 7 -15 17 -15 22 0 6 7 5 15 -2 8 -7 15 -17
15 -22z m-50 -6 c0 -15 2 -15 11 -2 8 12 9 9 4 -10 -21 -79 -23 -85 -24 -65
-2 18 -3 18 -15 -4 l-13 -23 -6 33 c-3 19 -8 43 -12 54 -3 11 2 7 12 -10 l18
-30 3 43 c3 39 22 52 22 14z m70 -19 c-1 -38 -3 -44 -11 -30 -9 16 -4 77 7 77
2 0 4 -21 4 -47z m-328 -23 c-14 -46 -17 -50 -20 -28 -3 24 24 95 33 86 2 -2
-4 -28 -13 -58z m-714 23 c2 -22 -11 -41 -60 -90 -52 -52 -64 -60 -77 -50 -14
11 -14 10 -2 -5 11 -16 7 -24 -36 -70 -28 -29 -70 -75 -94 -103 -63 -71 -67
-75 -74 -75 -3 0 -3 5 1 12 4 7 3 8 -4 4 -6 -4 -9 -13 -6 -20 8 -20 -12 -28
-26 -12 -9 12 -7 17 10 26 11 6 18 15 15 20 -3 6 0 7 8 4 8 -3 18 0 23 7 5 8
3 10 -6 4 -9 -5 -11 -4 -6 4 4 6 12 8 18 5 7 -5 9 -1 5 9 -7 17 17 42 32 33 5
-4 12 -2 15 3 4 5 1 13 -5 17 -8 5 -9 3 -4 -6 6 -9 4 -11 -5 -5 -10 6 -7 12
11 26 13 9 28 15 33 12 5 -4 7 1 3 10 -3 9 -1 19 5 23 7 5 8 2 4 -7 -4 -8 -1
-6 7 3 8 10 18 14 23 10 4 -4 2 2 -6 12 -8 11 -10 18 -5 15 9 -5 51 31 57 49
2 4 6 6 11 5 7 -3 11 13 8 30 -1 5 3 6 9 2 6 -3 7 -11 4 -17 -4 -7 -2 -8 4 -4
6 4 9 13 6 20 -3 7 3 19 13 27 17 13 17 13 3 -6 -14 -19 -14 -19 3 -6 9 7 16
21 15 30 -2 9 2 16 7 15 6 0 20 10 32 23 12 12 20 23 17 23 -3 0 -2 5 1 10 9
15 10 13 13 -17z m1231 -38 c5 -28 23 -81 39 -120 25 -57 31 -65 35 -45 7 41
6 -82 -2 -130 l-7 -45 -6 70 c-3 45 -15 89 -32 125 l-26 55 4 -175 c5 -179 3
-200 -9 -96 -5 41 -10 55 -16 45 -6 -9 -9 7 -9 46 -1 33 -5 92 -9 130 -9 77
-7 91 9 54 7 -18 9 -3 7 63 -2 93 7 103 22 23z m-476 8 c-5 -35 -4 -36 9 -19
13 16 13 11 7 -45 -5 -35 -13 -80 -18 -99 -9 -32 -10 -29 -9 30 0 36 0 84 -2
107 -2 37 4 63 15 63 2 0 1 -17 -2 -37z m155 -198 c-1 -97 -4 -126 -9 -95 -4
25 -12 58 -18 73 -14 35 -15 104 -1 72 6 -14 9 0 9 45 0 36 -3 71 -7 78 -13
20 -43 -126 -48 -230 -2 -51 -7 -106 -11 -123 -7 -29 -8 -28 -13 15 l-5 45
-19 -40 c-11 -22 -30 -67 -43 -100 l-22 -60 6 56 c3 35 -1 99 -12 167 -13 81
-15 124 -9 168 l9 59 2 -65 c6 -156 41 -307 44 -187 1 23 5 53 9 67 7 23 8 22
10 -10 1 -34 2 -34 12 -10 7 17 6 49 -1 105 -10 67 -9 88 3 130 l16 50 -5 -62
c-3 -34 -3 -74 1 -89 6 -23 10 -16 30 52 13 43 24 90 24 104 1 21 6 16 25 -25
22 -45 24 -61 23 -190z m-649 65 c6 -19 11 -46 10 -60 -1 -33 -49 126 -49 161
0 63 15 62 21 -1 4 -36 12 -81 18 -100z m270 99 c-6 -26 -9 -75 -7 -110 l3
-64 31 75 c17 41 34 84 38 94 12 34 14 12 5 -44 -6 -30 -6 -89 -2 -130 l7 -75
6 85 c4 53 15 102 28 130 l20 45 -1 -95 c0 -52 -2 -78 -4 -57 -2 20 -8 37 -14
37 -5 0 -9 -50 -9 -115 0 -78 -5 -127 -14 -150 -19 -44 -29 -45 -21 -2 3 17 2
52 -3 77 l-9 45 -11 -45 c-10 -39 -11 -32 -6 55 5 81 3 98 -7 88 -7 -7 -15
-53 -19 -111 -6 -83 -20 -142 -34 -142 -2 0 0 17 5 38 6 23 5 72 -2 129 -13
103 -8 224 10 267 16 41 21 29 10 -25z m-585 -72 c-27 -29 -98 -106 -159 -172
-60 -66 -145 -156 -189 -200 -60 -61 -53 -52 30 40 152 169 355 385 361 385 3
0 -16 -24 -43 -53z m1217 -134 c2 -72 2 -130 0 -128 -2 2 -9 33 -17 69 -7 36
-20 80 -27 98 -27 62 -9 -137 18 -204 12 -32 18 -55 13 -52 -17 11 -58 108
-58 139 0 23 -3 27 -10 15 -5 -8 -10 -26 -10 -40 -1 -20 -2 -22 -10 -9 -6 10
-3 42 7 90 14 68 13 114 -3 179 -5 21 -2 19 16 -9 12 -19 31 -51 42 -70 l20
-36 -5 75 c-4 67 -3 72 8 45 7 -17 14 -87 16 -162z m834 -153 c82 -91 141
-158 131 -150 -11 8 -91 94 -180 190 -88 96 -163 177 -166 180 -3 3 -30 32
-60 65 -29 33 -13 20 36 -30 50 -49 157 -164 239 -255z m-2047 243 c-47 -49
-134 -142 -194 -207 -126 -139 -170 -183 -204 -211 -14 -11 9 16 51 60 42 44
130 139 195 210 170 187 216 235 227 235 5 0 -28 -39 -75 -87z m1883 -110 c79
-87 180 -196 224 -243 44 -46 64 -71 44 -54 -19 17 -112 113 -206 215 -93 101
-180 193 -192 203 -18 17 -28 36 -18 36 2 0 69 -71 148 -157z m-792 20 c0 -40
-4 -103 -9 -140 -6 -38 -13 -90 -17 -118 -5 -39 -8 -43 -10 -20 -2 17 -6 59
-9 95 l-7 65 -14 -33 c-8 -19 -23 -82 -33 -140 l-20 -107 6 95 c6 106 20 225
23 195 1 -15 4 -16 13 -7 7 7 12 40 12 79 0 68 7 60 21 -22 6 -34 8 -37 17
-21 10 18 6 110 -8 166 -4 20 -3 22 5 10 9 -12 11 -11 12 10 3 51 17 -32 18
-107z m-959 93 c0 -13 5 -26 11 -28 15 -5 -6 -81 -28 -99 -15 -13 -16 -11 -10
11 4 14 7 51 7 83 0 31 5 57 10 57 6 0 10 -11 10 -24z m870 -53 c0 -48 -3 -64
-10 -53 -16 24 -11 120 6 120 2 0 4 -30 4 -67z m478 -70 c6 -75 -3 -66 -21 20
-12 61 -12 66 1 53 9 -8 17 -40 20 -73z m-1972 -4 c44 -45 99 -95 123 -111
l43 -30 -73 -75 c-125 -125 -230 -161 -289 -99 -62 67 -33 199 75 344 22 28
40 52 41 52 1 0 37 -36 80 -81z m2878 17 c118 -165 132 -303 35 -354 -56 -29
-140 10 -251 116 l-80 77 44 32 c47 34 188 172 188 185 0 22 23 2 64 -56z
m-2193 3 c-6 -24 -10 -62 -10 -84 l0 -40 24 60 23 60 4 -85 c2 -47 2 -87 1
-89 -1 -2 -8 9 -14 25 -10 27 -12 27 -19 9 -5 -11 -9 -38 -10 -60 l-2 -40 -13
40 c-18 55 -18 141 1 204 18 63 29 63 15 0z m1414 -100 c4 -35 1 -70 -8 -99
l-15 -45 -1 45 c-1 25 -8 63 -16 85 -18 50 -18 50 2 34 15 -13 16 -10 11 36
-6 47 -5 48 8 23 7 -14 16 -50 19 -79z m-888 11 c-4 -33 -4 -88 0 -122 l7 -63
16 65 16 64 -1 -116 c0 -64 -4 -114 -9 -111 -4 3 -18 26 -29 52 -21 48 -27
165 -12 252 10 61 19 46 12 -21z m187 -42 c-20 -59 -23 -144 -6 -174 10 -18
11 -18 18 -1 3 10 4 38 1 63 -3 31 -1 42 5 36 7 -7 8 -58 3 -149 -5 -87 -11
-129 -16 -113 -4 14 -8 41 -8 60 -1 19 -8 55 -17 80 -9 25 -16 63 -17 85 -1
40 44 197 51 176 2 -6 -4 -35 -14 -63z m-370 -10 c-4 -36 -1 -67 10 -98 18
-53 14 -64 -8 -21 -16 30 -22 124 -10 155 11 29 14 16 8 -36z m-206 -113 l-1
-120 -12 70 c-7 39 -13 60 -14 48 -1 -30 -15 -29 -29 2 -15 32 -16 137 -2 115
5 -8 10 -28 10 -45 l1 -30 14 25 c8 14 15 41 15 60 1 29 3 31 10 15 5 -11 8
-74 8 -140z m631 56 c0 -28 -2 -32 -8 -16 -4 11 -11 36 -14 55 -6 32 -6 34 8
16 8 -11 15 -36 14 -55z m538 -2 c-3 -27 -12 -59 -19 -71 -11 -21 -13 -19 -19
32 -8 61 -4 75 10 39 9 -21 10 -19 10 19 1 29 5 41 12 36 7 -4 9 -24 6 -55z
m-865 -21 c2 -27 0 -48 -4 -48 -12 0 -21 68 -13 97 9 31 13 21 17 -49z m199
-3 c-6 -61 -8 -66 -15 -38 -6 28 9 121 19 111 2 -2 0 -35 -4 -73z m-458 -25
c5 -64 5 -65 -10 -31 -9 22 -12 47 -8 69 8 45 11 39 18 -38z m753 -55 c1 -27
0 -39 -2 -25 -3 14 -12 44 -20 68 -19 57 -17 86 3 42 9 -19 17 -57 19 -85z
m313 -9 c-1 -45 -3 -55 -9 -36 -4 14 -8 42 -9 63 -1 21 -6 48 -12 60 -10 21
-9 21 10 -2 17 -18 21 -36 20 -85z m-1000 10 c14 -58 13 -104 -3 -141 -12 -28
-13 -25 -10 40 2 39 1 64 -2 58 -12 -26 -22 -12 -14 19 5 17 7 42 3 56 -4 16
-2 23 4 19 6 -4 16 -27 22 -51z m594 -26 c5 -61 5 -63 -8 -35 -15 32 -19 87
-8 98 9 10 10 9 16 -63z m316 -6 c-6 -32 -8 -77 -5 -99 5 -28 3 -36 -4 -25
-13 21 -13 133 2 165 17 38 19 25 7 -41z m-659 -73 c-15 -82 -30 -84 -30 -3 0
43 3 53 11 42 8 -11 9 -1 6 40 l-6 55 16 -32 c14 -28 15 -41 3 -102z m-1130
105 c0 -2 -8 -10 -17 -17 -16 -13 -17 -12 -4 4 13 16 21 21 21 13z m2661 -13
c13 -16 12 -17 -3 -4 -17 13 -22 21 -14 21 2 0 10 -8 17 -17z m-1378 -129 c4
-4 7 9 7 29 0 20 3 38 8 40 4 3 8 -31 9 -74 1 -46 -3 -77 -8 -73 -5 3 -9 11
-9 17 0 7 -8 21 -17 32 -15 19 -15 19 -9 -12 7 -40 2 -42 -19 -5 l-15 27 6
-40 c4 -22 13 -58 20 -80 13 -36 12 -38 -2 -20 -23 30 -47 123 -40 156 3 16
16 53 28 82 l23 52 5 -62 c3 -34 8 -65 13 -69z m351 -66 c-19 -64 -41 -93 -28
-37 9 39 9 68 -1 106 -5 23 -4 25 9 14 13 -11 15 -6 11 41 l-5 53 16 -59 c15
-55 15 -62 -2 -118z m-675 99 c0 -23 -4 -51 -9 -62 -6 -14 -9 1 -8 47 0 37 4
65 9 62 5 -3 9 -24 8 -47z m70 -7 c17 -33 26 -60 21 -60 -5 0 -14 8 -20 18
-17 27 -2 -56 17 -93 15 -27 15 -29 0 -17 -22 19 -45 87 -51 155 -2 31 -3 57
-1 57 3 0 18 -27 34 -60z m492 -121 c-6 -20 -18 -42 -26 -49 -12 -10 -13 -7
-5 22 6 18 10 46 10 61 0 16 4 26 10 22 6 -3 11 6 12 22 1 24 2 23 5 -7 3 -19
0 -51 -6 -71z m-371 14 c0 -48 -3 -64 -10 -53 -16 24 -11 120 6 120 2 0 4 -30
4 -67z"/>
<path d="M1793 3370 c0 -30 2 -43 4 -27 2 15 2 39 0 55 -2 15 -4 2 -4 -28z"/>
<path d="M1823 3355 c0 -22 2 -30 4 -17 2 12 2 30 0 40 -3 9 -5 -1 -4 -23z"/>
<path d="M3171 3377 c-1 -17 35 -97 44 -97 2 0 -4 19 -14 43 -10 23 -21 49
-24 57 -4 12 -6 11 -6 -3z"/>
<path d="M3150 3353 c0 -18 20 -66 25 -61 3 3 -1 20 -9 39 -9 19 -15 29 -16
22z"/>
<path d="M1782 3290 c0 -14 2 -19 5 -12 2 6 2 18 0 25 -3 6 -5 1 -5 -13z"/>
<path d="M2774 3108 c-30 -29 -64 -53 -76 -55 -18 -3 -19 -1 -7 14 12 16 12
17 -2 6 -9 -7 -18 -10 -22 -7 -3 3 -10 -3 -16 -14 -13 -25 -42 -22 -52 4 -6
16 -8 15 -8 -7 -1 -14 -13 -48 -27 -75 -34 -64 -47 -78 -39 -39 5 21 4 26 -3
16 -8 -11 -11 -10 -14 5 -4 16 -8 13 -20 -14 l-14 -32 -25 42 c-13 24 -29 61
-36 83 -6 22 -11 33 -12 24 -1 -9 -7 -22 -15 -28 -12 -10 -18 -7 -32 14 -9 14
-19 23 -22 20 -3 -2 -12 1 -21 8 -14 11 -14 10 -2 -6 12 -15 11 -17 -8 -14
-12 2 -45 26 -73 53 -28 27 -48 41 -44 31 5 -17 2 -18 -36 -13 l-43 7 54 -21
c30 -11 68 -32 83 -47 26 -25 27 -28 11 -34 -13 -5 -7 -9 22 -14 39 -7 154
-62 156 -74 6 -47 6 -51 -9 -38 -13 10 -14 9 -2 -13 11 -21 11 -23 -1 -14 -16
13 -49 15 -49 3 0 -4 5 -11 10 -14 6 -3 10 -12 10 -18 0 -7 -14 4 -31 23 -24
27 -28 29 -18 10 11 -24 10 -24 -22 5 l-33 30 17 -27 c26 -41 21 -45 -15 -12
l-31 29 23 -35 c32 -47 37 -50 99 -50 37 0 60 5 73 17 21 19 24 6 4 -19 -10
-14 -28 -18 -82 -18 l-69 0 -50 66 c-27 37 -60 74 -73 82 -27 17 -64 24 -56
10 4 -5 12 -7 20 -4 8 3 11 0 7 -9 -3 -8 -9 -12 -14 -9 -5 3 -9 3 -9 1 0 -3
16 -15 36 -26 20 -12 34 -24 32 -27 -3 -2 -41 16 -84 42 -120 72 -194 71 -285
-1 -49 -38 -69 -38 -24 1 55 45 107 67 163 68 30 0 48 2 41 5 -8 2 -20 10 -27
18 -16 15 -60 17 -97 3 -19 -7 -24 -7 -19 2 5 8 2 9 -10 5 -10 -4 -19 -7 -21
-7 -1 0 -15 -17 -31 -37 -15 -21 -20 -32 -11 -24 24 19 21 11 -8 -29 -17 -23
-21 -36 -14 -41 8 -5 5 -16 -10 -37 -20 -29 -20 -33 -7 -84 14 -51 15 -52 15
-16 1 37 15 59 24 36 2 -7 4 3 4 23 -1 25 8 46 29 72 16 20 33 37 37 37 5 0
-5 -17 -22 -37 -37 -45 -38 -70 -10 -172 20 -77 52 -121 86 -121 11 0 7 7 -11
21 -15 12 -25 24 -22 27 3 3 0 12 -7 21 -6 8 4 4 23 -10 19 -14 51 -31 70 -36
l35 -11 -33 -7 c-24 -6 -30 -10 -20 -16 8 -6 9 -9 1 -9 -6 0 -20 -3 -30 -6
-15 -5 -15 -4 -3 5 9 7 10 11 3 11 -6 0 -15 -4 -18 -10 -3 -5 -11 -10 -16 -10
-6 0 -8 4 -5 8 3 5 -1 9 -9 9 -8 0 -12 -4 -10 -8 3 -4 -2 -10 -11 -13 -8 -3
-12 -2 -9 3 3 5 2 12 -3 15 -5 3 -9 -2 -9 -10 0 -32 44 -35 148 -8 84 22 107
24 142 16 23 -6 44 -7 47 -3 3 4 20 13 38 19 24 8 32 8 32 -1 1 -7 15 4 33 24
18 20 42 41 55 48 23 12 23 12 6 -13 -16 -25 -16 -26 2 -20 11 4 0 -7 -23 -25
-24 -17 -43 -35 -43 -40 0 -11 -60 -50 -105 -69 l-30 -12 30 6 c17 4 41 7 55
8 15 1 29 10 36 24 24 48 86 97 70 55 -6 -15 -5 -15 13 1 11 10 25 35 32 55 6
20 17 47 24 61 6 14 20 42 30 63 10 20 22 37 28 37 6 0 6 -5 -1 -12 -5 -7 -24
-49 -41 -93 -18 -44 -40 -92 -51 -106 -14 -21 -16 -29 -7 -39 9 -10 9 -11 -3
-5 -13 8 -13 7 -1 -9 14 -16 16 -15 33 16 12 20 16 24 13 11 -4 -13 -4 -23 -2
-23 3 0 15 33 27 73 12 39 28 83 37 96 8 13 10 20 4 17 -15 -10 -14 7 2 23 10
11 10 13 0 7 -22 -12 -14 11 13 43 l26 31 21 -27 c12 -14 22 -42 24 -62 2 -38
51 -186 52 -161 1 8 12 -9 26 -37 13 -29 26 -53 29 -53 3 0 1 11 -6 25 -8 18
-8 28 1 39 9 10 9 16 1 21 -11 7 -51 90 -76 160 -8 21 -22 48 -32 59 -17 20
-16 20 6 6 21 -14 61 -93 83 -166 5 -17 18 -39 29 -49 18 -17 20 -17 14 -2
-16 42 49 -10 75 -60 8 -15 17 -20 33 -15 l22 5 -24 16 c-13 9 -33 27 -45 40
-11 13 -36 35 -55 48 -19 14 -27 23 -16 19 18 -6 18 -5 2 20 -17 25 -17 25 6
14 13 -7 37 -29 55 -49 18 -20 32 -31 33 -24 0 9 8 9 33 1 17 -6 34 -15 37
-19 3 -4 25 -3 50 3 39 9 60 6 142 -16 101 -27 145 -25 145 8 0 12 -4 13 -14
5 -10 -9 -17 -8 -30 2 -9 8 -14 9 -10 3 4 -8 -5 -10 -29 -8 -49 4 -51 9 -6 22
53 16 69 37 92 120 27 96 25 128 -6 169 -14 19 -24 36 -21 39 7 7 54 -58 71
-100 9 -21 16 -53 17 -70 0 -25 3 -21 15 23 13 50 13 55 -7 87 -26 42 -98 99
-146 115 -58 19 -121 5 -206 -45 -42 -25 -77 -41 -77 -36 0 6 3 10 8 10 4 0
18 10 32 21 14 11 20 18 14 15 -7 -3 -14 1 -17 9 -4 9 -1 12 7 9 8 -3 16 -1
20 4 7 12 -24 8 -50 -6 -12 -6 -45 -43 -74 -82 l-52 -70 -67 0 c-55 0 -71 4
-86 20 -10 11 -16 22 -13 25 3 3 11 -1 18 -10 8 -10 30 -15 69 -15 64 0 68 2
101 50 l23 35 -33 -30 -34 -30 17 27 c20 31 22 50 4 28 -7 -8 -21 -22 -31 -30
-18 -14 -19 -14 -7 10 9 19 5 17 -18 -10 -17 -19 -31 -30 -31 -24 0 5 6 16 13
23 10 11 8 11 -13 1 l-25 -13 19 22 c17 18 17 21 3 15 -10 -4 -17 -1 -17 6 0
9 -3 10 -13 1 -18 -15 -16 21 2 43 17 21 99 62 140 71 17 4 28 11 25 16 -14
23 52 68 131 90 21 6 15 7 -20 3 l-50 -6 19 21 c37 41 4 20 -50 -31z m-933
-313 l-8 -50 -7 37 c-6 26 -4 41 6 51 7 8 14 14 15 13 1 -1 -2 -24 -6 -51z
m1331 -8 l-10 -32 -1 32 c-1 17 -4 40 -8 50 -7 17 -6 17 11 0 15 -15 17 -24 8
-50z m-778 -64 c-3 -11 -18 -26 -32 -33 l-27 -12 28 26 c15 14 27 31 27 37 0
7 2 10 5 8 2 -3 2 -14 -1 -26z m251 -28 c19 -15 19 -16 -5 -4 -26 12 -40 27
-40 43 0 6 6 2 13 -7 6 -9 21 -24 32 -32z m478 -37 c-4 -7 -8 -17 -8 -22 0 -5
-12 -18 -27 -29 -21 -16 -34 -18 -65 -12 l-38 8 40 10 c22 5 54 20 70 33 35
27 39 29 28 12z"/>
<path d="M1888 3103 c7 -3 16 -2 19 1 4 3 -2 6 -13 5 -11 0 -14 -3 -6 -6z"/>
<path d="M2270 3081 c0 -5 5 -13 10 -16 6 -3 10 -2 10 4 0 5 -4 13 -10 16 -5
3 -10 2 -10 -4z"/>
<path d="M2716 3073 c-6 -14 -5 -15 5 -6 7 7 10 15 7 18 -3 3 -9 -2 -12 -12z"/>
<path d="M3018 3017 c-7 -8 -20 -17 -28 -20 -8 -4 -3 -5 12 -2 51 10 120 -14
183 -63 50 -39 57 -42 42 -19 -10 15 -16 31 -13 36 7 10 -58 81 -73 81 -7 0
-9 -4 -6 -10 4 -7 -3 -7 -20 0 -37 14 -81 12 -97 -3z"/>
<path d="M2471 2954 c0 -11 3 -14 6 -6 3 7 2 16 -1 19 -3 4 -6 -2 -5 -13z"/>
<path d="M3201 2794 c0 -11 3 -14 6 -6 3 7 2 16 -1 19 -3 4 -6 -2 -5 -13z"/>
<path d="M1742 2640 c0 -14 2 -19 5 -12 2 6 2 18 0 25 -3 6 -5 1 -5 -13z"/>
<path d="M3251 2634 c0 -11 3 -14 6 -6 3 7 2 16 -1 19 -3 4 -6 -2 -5 -13z"/>
<path d="M2428 2533 c-20 -60 -46 -136 -59 -170 l-23 -61 24 -52 c27 -57 53
-78 75 -60 10 8 14 8 17 -2 3 -7 10 16 18 50 7 34 16 62 20 62 4 0 12 -25 19
-56 7 -30 15 -53 18 -50 3 3 13 1 23 -4 22 -12 41 3 71 58 20 37 22 47 12 80
-19 62 -105 307 -109 311 -2 2 -11 -2 -19 -9 -12 -10 -19 -10 -27 -2 -7 7 -15
12 -19 12 -3 0 -22 -48 -41 -107z m23 -24 c-5 -13 -10 -19 -10 -12 -1 15 10
45 15 40 3 -2 0 -15 -5 -28z m108 -9 c0 -10 -3 -8 -9 5 -12 27 -12 43 0 25 5
-8 9 -22 9 -30z m-28 -63 c35 -44 61 -95 54 -107 -11 -17 -23 -11 -29 15 -14
56 -98 55 -112 0 -7 -28 -30 -29 -28 -1 2 17 73 126 83 126 3 0 18 -15 32 -33z
m-25 -114 c-10 -10 -19 5 -10 18 6 11 8 11 12 0 2 -7 1 -15 -2 -18z m-55 -64
c17 10 20 10 13 -1 -5 -7 -9 -19 -11 -27 -1 -7 -6 -18 -12 -24 -16 -16 -52 22
-55 57 l-3 27 24 -23 c21 -19 27 -21 44 -9z m163 4 c-3 -31 -37 -68 -53 -59
-6 4 -9 12 -6 17 4 5 1 9 -6 9 -7 0 -9 3 -6 7 4 3 1 13 -6 21 -11 13 -9 14 10
1 20 -12 25 -11 45 9 12 12 23 22 24 22 1 0 0 -12 -2 -27z"/>
<path d="M2120 2546 c0 -18 6 -19 35 -6 11 5 15 9 8 9 -6 1 -18 4 -27 7 -11 4
-16 1 -16 -10z"/>
<path d="M2845 2551 c-17 -7 -16 -9 9 -15 31 -8 42 -3 31 13 -7 12 -12 13 -40
2z"/>
<path d="M1771 2489 c1 -24 3 -36 6 -26 5 21 7 21 58 2 22 -8 58 -14 80 -13
32 1 34 2 10 5 -16 2 -43 10 -60 18 -16 7 -33 13 -37 12 -4 -1 -14 7 -23 18
-9 11 -14 13 -10 5 4 -8 -1 -6 -9 4 -15 19 -16 17 -15 -25z"/>
<path d="M2030 2521 c0 -6 3 -10 8 -9 4 1 16 -1 27 -5 11 -4 34 -3 50 2 30 9
30 9 4 10 -15 1 -41 4 -58 7 -20 4 -31 3 -31 -5z"/>
<path d="M2838 2523 c7 -3 16 -2 19 1 4 3 -2 6 -13 5 -11 0 -14 -3 -6 -6z"/>
<path d="M2900 2521 l-35 -7 28 -7 c16 -5 36 -3 50 4 12 7 23 10 24 8 1 -2 5
-1 9 4 8 8 -25 7 -76 -2z"/>
<path d="M3215 2514 c-6 -8 -17 -16 -25 -18 -8 -1 -26 -8 -40 -16 -14 -8 -43
-17 -65 -21 l-40 -6 36 -2 c20 0 58 6 85 14 37 11 50 12 56 2 4 -7 8 4 8 26 0
42 -1 43 -15 21z"/>
<path d="M2820 2490 c8 -5 22 -9 30 -9 10 0 8 3 -5 9 -27 12 -43 12 -25 0z"/>
<path d="M3311 2415 c-2 -44 -5 -55 -11 -40 -7 17 -9 14 -10 -15 -1 -29 -3
-32 -10 -15 -7 16 -9 12 -10 -20 l-2 -40 -13 40 -13 40 -2 -40 -2 -40 -14 30
-15 30 5 -40 c5 -36 4 -38 -9 -22 -13 18 -14 17 -17 -5 l-5 -23 -11 25 -11 25
-1 -30 -1 -30 -14 30 -14 30 5 -40 c5 -39 5 -40 -10 -15 -14 22 -15 23 -16 5
-1 -20 -1 -20 -15 -1 -15 20 -15 20 -15 0 0 -16 -2 -17 -10 -4 -5 8 -10 11
-10 6 0 -5 -7 -3 -15 4 -8 7 -15 9 -15 5 0 -4 -7 -2 -15 5 -8 7 -15 10 -15 6
0 -3 -11 -1 -25 4 -14 5 -25 6 -25 1 0 -5 11 -12 24 -15 14 -3 47 -20 75 -37
l49 -31 94 34 c90 33 94 35 116 82 20 41 22 54 14 104 l-10 57 -1 -60z"/>
<path d="M1677 2413 c-6 -43 -4 -59 15 -99 22 -46 26 -48 116 -82 l94 -34 49
31 c28 17 61 34 75 37 13 3 24 10 24 15 0 5 -11 4 -25 -1 -14 -5 -25 -7 -25
-4 0 4 -7 1 -15 -6 -8 -7 -15 -9 -15 -5 0 4 -7 2 -15 -5 -8 -7 -15 -9 -15 -4
0 5 -5 2 -10 -6 -8 -12 -10 -12 -10 5 -1 18 -2 17 -15 -5 l-14 -25 -1 25 c-1
25 -1 25 -10 3 -13 -32 -16 -29 -13 15 l3 37 -15 -30 -14 -30 -1 30 -1 30 -11
-25 -11 -25 -5 24 c-3 19 -6 21 -13 10 -6 -10 -9 -6 -9 16 l-1 30 -14 -25 -14
-25 -1 35 -2 35 -13 -35 -13 -35 -1 35 c-1 27 -4 32 -12 20 -7 -11 -9 0 -5 40
l6 55 -14 -40 -13 -40 -4 55 -4 55 -8 -52z"/>
<path d="M2028 2413 c7 -3 16 -2 19 1 4 3 -2 6 -13 5 -11 0 -14 -3 -6 -6z"/>
<path d="M2958 2413 c7 -3 16 -2 19 1 4 3 -2 6 -13 5 -11 0 -14 -3 -6 -6z"/>
<path d="M1900 2390 c8 -5 22 -9 30 -9 10 0 8 3 -5 9 -27 12 -43 12 -25 0z"/>
<path d="M2660 2395 c0 -5 5 -17 10 -25 5 -8 10 -10 10 -5 0 6 -5 17 -10 25
-5 8 -10 11 -10 5z"/>
<path d="M3080 2390 c-8 -5 -10 -10 -5 -10 6 0 17 5 25 10 8 5 11 10 5 10 -5
0 -17 -5 -25 -10z"/>
<path d="M2104 2368 c11 -7 28 -21 38 -31 19 -18 78 -35 78 -23 0 4 -12 11
-27 17 -26 10 -26 12 -11 23 15 11 11 13 -28 15 -26 0 -51 4 -58 6 -6 3 -2 0
8 -7z"/>
<path d="M2876 2373 c-2 -2 -19 -4 -39 -5 -31 -1 -34 -3 -20 -13 15 -11 14
-14 -13 -28 -32 -18 -11 -24 28 -7 35 14 82 57 64 57 -9 0 -18 -2 -20 -4z"/>
<path d="M2300 2324 c-15 -39 -12 -79 8 -96 37 -33 43 -29 22 13 -15 29 -20
53 -17 76 7 39 0 43 -13 7z"/>
<path d="M2687 2318 c4 -27 0 -48 -16 -77 -22 -44 -10 -52 21 -14 22 26 23 82
3 109 -13 17 -14 16 -8 -18z"/>
<path d="M1881 1994 c-1 -13 16 -28 43 -38 19 -7 19 -6 2 13 -10 11 -22 18
-26 16 -5 -3 -11 1 -13 7 -4 8 -6 9 -6 2z"/>
<path d="M3141 1994 c0 -11 3 -14 6 -6 3 7 2 16 -1 19 -3 4 -6 -2 -5 -13z"/>
<path d="M3543 1325 c0 -8 4 -12 9 -9 5 3 6 10 3 15 -9 13 -12 11 -12 -6z"/>
<path d="M3595 1271 c-3 -5 -2 -12 3 -15 5 -3 9 1 9 9 0 17 -3 19 -12 6z"/>
<path d="M1365 1241 c-3 -5 -2 -12 3 -15 5 -3 9 1 9 9 0 17 -3 19 -12 6z"/>
<path d="M1017 1258 c-33 -44 -84 -137 -65 -118 29 29 109 150 99 150 -5 0
-21 -15 -34 -32z"/>
<path d="M1132 1150 c-23 -30 -29 -56 -12 -45 6 3 10 1 10 -5 0 -15 -87 -98
-138 -130 -26 -17 -39 -31 -32 -35 22 -13 80 -7 123 14 42 20 187 145 177 153
-3 2 -26 20 -52 41 -25 20 -48 37 -50 37 -2 0 -14 -13 -26 -30z"/>
<path d="M1065 1120 c16 -7 17 -9 3 -9 -24 -1 -31 -17 -7 -17 10 0 19 4 19 9
0 4 6 5 13 1 8 -5 8 -2 -2 9 -7 9 -21 17 -30 16 -12 0 -11 -2 4 -9z"/>
<path d="M1024 1105 c-3 -8 -4 -20 -2 -27 3 -7 7 -1 10 15 6 29 1 36 -8 12z"/>
<path d="M1079 1063 c-13 -16 -12 -17 4 -4 9 7 17 15 17 17 0 8 -8 3 -21 -13z"/>
<path d="M1019 1023 c-13 -16 -12 -17 4 -4 9 7 17 15 17 17 0 8 -8 3 -21 -13z"/>
<path d="M3992 1218 c60 -85 75 -103 58 -68 -28 57 -86 140 -98 140 -7 0 11
-33 40 -72z"/>
<path d="M3808 1156 c-15 -13 -37 -31 -49 -40 -22 -15 -22 -15 46 -80 79 -75
136 -106 193 -106 44 0 64 15 34 24 -23 8 -124 93 -153 130 -19 24 -20 28 -6
23 9 -3 17 -2 17 4 0 12 -41 69 -49 69 -3 0 -18 -11 -33 -24z"/>
<path d="M3912 1118 c-17 -17 -15 -43 6 -59 14 -11 15 -11 5 1 -7 8 -13 23
-13 35 0 11 4 16 8 10 9 -12 44 -16 36 -4 -3 5 -13 9 -22 10 -14 0 -13 2 3 9
14 6 15 9 5 9 -9 1 -21 -4 -28 -11z"/>
<path d="M3968 1095 c3 -17 -1 -31 -9 -37 -12 -8 -11 -9 1 -5 18 4 26 45 12
59 -6 6 -8 0 -4 -17z"/>
<path d="M3964 1031 c7 -11 46 -35 46 -28 0 3 -12 12 -26 22 -15 9 -23 12 -20
6z"/>
<path d="M415 3220 c28 -10 64 -18 80 -18 23 0 16 4 -30 19 -77 24 -116 23
-50 -1z"/>
<path d="M4548 3227 c-21 -6 -38 -14 -38 -19 0 -4 3 -8 6 -8 13 0 114 32 114
36 0 7 -42 2 -82 -9z"/>
<path d="M325 3164 c-15 -31 -24 -58 -21 -62 3 -3 6 0 6 7 0 7 5 9 10 6 6 -3
10 -2 10 4 0 6 9 15 21 21 17 9 23 8 35 -7 11 -13 13 -14 9 -2 -8 21 35 20 61
-1 10 -8 15 -10 11 -3 -8 13 18 12 30 -2 4 -4 2 -5 -6 0 -10 6 -12 4 -6 -4 5
-9 10 -10 18 -2 8 8 16 6 31 -7 11 -9 16 -11 12 -4 -11 18 5 15 21 -5 8 -10
12 -12 8 -5 -9 18 6 15 22 -5 8 -10 12 -12 8 -5 -9 18 6 15 22 -5 8 -10 12
-12 8 -5 -9 18 6 15 21 -5 13 -17 14 -17 8 2 -5 17 -3 16 16 -5 12 -14 19 -19
15 -12 -9 18 6 15 21 -5 13 -17 14 -17 8 2 -5 17 -3 16 15 -5 18 -21 20 -22
15 -5 -5 17 -2 16 15 -5 18 -21 20 -22 15 -5 -5 17 -2 16 15 -5 18 -21 20 -22
15 -5 -5 17 -2 16 15 -5 18 -21 20 -22 15 -5 -5 17 -2 16 15 -5 18 -21 20 -22
15 -5 -5 17 -2 16 15 -5 14 -16 19 -19 15 -7 -9 26 4 20 21 -10 13 -23 15 -24
10 -5 -9 30 1 28 20 -5 9 -16 14 -20 11 -10 -8 25 9 21 23 -5 6 -13 9 -15 7
-5 -8 25 9 21 23 -5 6 -13 9 -15 7 -5 -8 25 9 21 23 -5 6 -13 9 -15 7 -5 -8
25 13 21 24 -5 5 -14 9 -17 10 -8 0 12 4 11 15 -4 8 -11 15 -14 15 -8 0 19 20
14 21 -5 0 -11 3 -13 6 -5 7 18 23 15 23 -5 0 -14 2 -15 9 -4 7 11 11 10 20
-5 8 -14 11 -15 11 -4 0 12 4 10 15 -4 11 -14 15 -16 15 -5 1 10 5 9 15 -5 11
-14 15 -16 15 -5 1 11 3 11 13 -2 7 -9 18 -14 25 -12 6 3 12 0 12 -6 0 -6 7
-8 15 -5 8 4 15 1 15 -5 0 -6 7 -8 15 -5 9 4 15 0 15 -9 0 -9 4 -19 10 -22 6
-3 7 1 4 9 -11 28 12 17 24 -11 8 -19 10 -21 6 -5 -7 30 2 28 21 -5 9 -16 14
-20 11 -10 -9 29 13 9 29 -26 12 -25 14 -27 9 -7 -4 21 -3 22 6 8 19 -31 21
-89 5 -115 -11 -17 -25 -23 -53 -24 l-37 -1 33 -9 c29 -9 40 -6 75 17 36 22
45 35 60 85 31 105 34 101 -143 163 -248 88 -1064 356 -1082 356 -3 0 -18 -25
-33 -56z"/>
<path d="M4570 3199 c-221 -68 -1008 -331 -1108 -371 -63 -25 -69 -41 -45
-123 16 -50 26 -64 60 -87 33 -23 47 -27 74 -21 l34 8 -40 5 c-48 6 -74 44
-54 81 7 14 7 19 0 15 -7 -5 -7 3 1 24 5 17 13 29 16 26 3 -3 11 2 18 12 11
14 14 14 14 2 1 -8 6 -4 12 10 9 23 11 24 17 6 7 -18 8 -18 15 5 5 16 9 20 13
10 4 -10 9 -8 19 10 12 22 13 22 14 4 1 -17 3 -17 12 5 9 23 11 24 17 6 7 -19
8 -18 15 5 7 21 9 22 13 5 4 -17 6 -16 17 5 6 13 17 25 24 25 7 1 14 3 17 4 3
1 8 3 13 4 4 1 13 5 19 9 9 6 11 3 8 -10 -3 -10 0 -8 6 5 14 26 31 30 23 5 -2
-10 1 -8 7 5 7 13 18 21 26 18 7 -3 13 -1 13 4 0 6 4 10 10 10 5 0 7 -8 4 -17
-4 -10 4 -4 16 12 20 29 21 29 15 5 -6 -24 -5 -24 10 3 19 33 29 35 20 5 -5
-19 -3 -18 10 5 19 33 29 35 20 5 -5 -19 -3 -17 15 7 20 28 21 29 15 5 -5 -22
-5 -23 6 -6 8 13 13 15 19 6 5 -8 9 -7 13 5 4 9 3 13 -3 10 -6 -3 -10 -1 -10
4 0 17 18 13 28 -5 8 -15 10 -15 15 0 4 10 3 15 -3 11 -6 -3 -10 -1 -10 4 0
17 18 13 28 -5 8 -15 10 -14 16 2 5 14 9 15 15 5 6 -10 10 -9 14 4 4 9 3 13
-3 10 -6 -3 -10 -1 -10 4 0 17 20 13 27 -5 5 -13 7 -13 14 -2 5 7 13 14 19 14
5 1 12 3 15 4 3 1 10 4 15 5 6 1 12 4 15 5 3 1 10 4 15 5 6 1 12 4 15 5 3 1
10 4 15 5 6 1 12 4 15 5 3 1 10 4 15 5 6 1 12 4 15 5 3 1 10 4 15 5 6 1 12 4
15 5 3 1 10 4 15 5 6 1 12 4 15 5 3 1 10 4 15 5 6 1 12 4 15 5 3 1 10 4 15 5
6 1 12 4 15 5 3 1 10 3 16 4 6 0 18 10 26 21 15 19 15 19 9 1 -7 -19 -6 -19
14 -1 11 10 20 15 20 10 0 -4 6 -3 13 3 6 6 15 11 20 11 4 1 8 1 10 2 1 1 15
2 30 3 22 2 27 -1 22 -13 -3 -11 0 -9 11 4 15 19 16 19 29 2 10 -14 14 -15 18
-5 3 8 6 6 6 -5 1 -11 5 -15 13 -11 8 5 9 1 4 -12 -5 -14 -4 -16 5 -7 8 9 5
24 -14 67 -14 31 -30 56 -34 55 -4 0 -37 -9 -73 -20z m-140 -93 c0 -3 -4 -8
-10 -11 -5 -3 -10 -1 -10 4 0 6 5 11 10 11 6 0 10 -2 10 -4z m-30 -10 c0 -3
-4 -8 -10 -11 -5 -3 -10 -1 -10 4 0 6 5 11 10 11 6 0 10 -2 10 -4z m-60 -20
c0 -3 -4 -8 -10 -11 -5 -3 -10 -1 -10 4 0 6 5 11 10 11 6 0 10 -2 10 -4z m-98
-38 c-7 -7 -12 -8 -12 -2 0 6 3 14 7 17 3 4 9 5 12 2 2 -3 -1 -11 -7 -17z m38
18 c0 -3 -4 -8 -10 -11 -5 -3 -10 -1 -10 4 0 6 5 11 10 11 6 0 10 -2 10 -4z
m-60 -20 c0 -3 -4 -8 -10 -11 -5 -3 -10 -1 -10 4 0 6 5 11 10 11 6 0 10 -2 10
-4z m-68 -28 c-7 -7 -12 -8 -12 -2 0 6 3 14 7 17 3 4 9 5 12 2 2 -3 -1 -11 -7
-17z m38 18 c0 -3 -4 -8 -10 -11 -5 -3 -10 -1 -10 4 0 6 5 11 10 11 6 0 10 -2
10 -4z"/>
<path d="M1060 3020 c8 -5 22 -9 30 -9 10 0 8 3 -5 9 -27 12 -43 12 -25 0z"/>
<path d="M3915 3020 c-13 -6 -15 -9 -5 -9 8 0 22 4 30 9 18 12 2 12 -25 0z"/>
<path d="M1150 2990 c8 -5 22 -9 30 -9 10 0 8 3 -5 9 -27 12 -43 12 -25 0z"/>
<path d="M3825 2990 c-13 -6 -15 -9 -5 -9 8 0 22 4 30 9 18 12 2 12 -25 0z"/>
<path d="M416 2933 c-9 -9 115 -53 128 -45 5 3 -13 13 -40 23 -73 28 -80 30
-88 22z"/>
<path d="M4506 2915 c-33 -12 -55 -24 -50 -27 13 -8 134 34 128 44 -7 10 -7
10 -78 -17z"/>
<path d="M3721 2844 c0 -11 3 -14 6 -6 3 7 2 16 -1 19 -3 4 -6 -2 -5 -13z"/>
<path d="M993 2734 c0 -6 25 -19 56 -29 31 -10 63 -20 71 -23 11 -5 11 -2 -2
11 -24 24 -125 57 -125 41z"/>
<path d="M3952 2729 c-28 -10 -60 -26 -70 -35 -13 -14 -13 -16 -2 -12 8 3 40
13 71 23 32 10 56 23 56 31 0 8 -1 13 -1 13 -1 -1 -25 -10 -54 -20z"/>
</g>
</svg>
